# xmcd
#
# Track frame offsets:
#	150
#	9300
#	15496
#	35461
#	57372
#	74879
#	89669
#	106224
#	111959
#	128406
#	141234
#	158625
#	178708
#	195217
#	201788
#	217908
#
# Disc length: 3134 seconds
#
# Revision: 0
# Processed by: cddbd v1.5.2PL0 Copyright (c) Steve Scherf et al.
# Submitted via: EasyCDDAExtractor 12.1.0.1
#
DISCID=d70c3c10
DTITLE=Kindred The Family Soul - Love Has No Recession
DYEAR=2011
DGENRE=Soul
TTITLE0=The Sheddington (intro)
TTITLE1=Above Water Part 1 (feat Ursula Rucker)
TTITLE2=We All Will Know (feat Raheem DeVaughn)
TTITLE3=Take A Look Around (featBJ The Chicago Kid, Bilal)
TTITLE4=You Got Love (feat Snoop Dog)
TTITLE5=Magic Happen
TTITLE6=Authentically You (feat Lady Alma Horton)
TTITLE7=Above Water Part 2 (feat Coco Brown)
TTITLE8=SOS (sense of security)
TTITLE9=Sticking With You
TTITLE10=2 Words
TTITLE11=Going To Thje Go-Go (feat Chuck Brown and DJ Kool)
TTITLE12=Love Has No Recession (feat Fred Yonnet)
TTITLE13=Above Water Part 3 (feat Rich Medina)
TTITLE14=The Sheddington (outro)
TTITLE15=You Got Love Remix (bonus cut)
EXTD=
EXTT0=
EXTT1=
EXTT2=
EXTT3=
EXTT4=
EXTT5=
EXTT6=
EXTT7=
EXTT8=
EXTT9=
EXTT10=
EXTT11=
EXTT12=
EXTT13=
EXTT14=
EXTT15=
PLAYORDER=
